<svg id="Capa_1" data-name="Capa 1" xmlns="http://www.w3.org/2000/svg" xmlns:xlink="http://www.w3.org/1999/xlink" viewBox="0 0 1920 892.85"><defs><style>.cls-1{fill:none;}.cls-2{clip-path:url(#clip-path);}.cls-3{fill:#263238;}</style><clipPath id="clip-path"><rect class="cls-1" x="9.49" y="1223.63" width="1747.52" height="348.73"/></clipPath></defs><g class="cls-2"><image width="1366" height="768" transform="translate(10.14 577.39) scale(1.3)" xlink:href="../../%5B%20Marketing%20%5D/%5B%20Partners%20%5D/Presentaci%C3%B3n%20Alianzas/Alianzas%20-%20Rutero%20%5BKano%20Outdoor%5D/Links/Captura%20de%20pantalla%20(402).png"/></g><path class="cls-3" d="M136.29,151.66a18.57,18.57,0,0,0,3-.29c1.45-.18,2.89-.36,4.34-.56,3.38-.46,6.76-.56,10.14-.87A20.26,20.26,0,0,1,159,150c1.4.25,2.85.74,4.24.93a16.44,16.44,0,0,1,3.78,1.25c-.84,2.36,1.13,4.41,3.41,4.74a3.86,3.86,0,0,0,.6,0,1.66,1.66,0,0,0,1,.48.92.92,0,0,0,.23.09.41.41,0,0,0,.4-.06h0a.55.55,0,0,0,.3-.09,1.59,1.59,0,0,0,.62-1.06,3.07,3.07,0,0,0,1,.56.1.1,0,0,0,.08-.18,5.11,5.11,0,0,1-.63-.52l.3.17a2.63,2.63,0,0,0,1.16.48c.11,0,.13-.16,0-.2a4.14,4.14,0,0,1-1.53-1.27l0,0a3.59,3.59,0,0,0,2.38,1.25c.07,0,.09-.11,0-.13a2.83,2.83,0,0,1-1-.66l.35.21a4.06,4.06,0,0,0,1,.2.06.06,0,0,0,.05-.1l-.52-.36a2.81,2.81,0,0,0,1.07.05.08.08,0,0,0,0-.15,5.36,5.36,0,0,1-2.52-1.87,8.46,8.46,0,0,1-.48-1.17c0-.25,0-.49,0-.72a9.25,9.25,0,0,0,.94-.38,54.43,54.43,0,0,0,4.92-3c1.19-.74,2.35-2.23,3.36-2.77a6.11,6.11,0,0,1,2.54-1,1.3,1.3,0,0,0,.86-.35c-.52.46.42-.11.59-.18,3.22-1.41,6.54-2.7,9.8-4,1.2-.49,2.91-.65,3.94-1.52.58-.48,3-1.33,2.89-2.09,0,.07.12.07.14,0s0,0,0-.08a.09.09,0,0,0-.16-.07c-.4.56-1.5.86-2.09,1.21a20.73,20.73,0,0,1-2.62,1.21,19.05,19.05,0,0,1-4.64,1.12,37.31,37.31,0,0,0-5.52,1.24,17.59,17.59,0,0,0-3.54,1.14,10.33,10.33,0,0,0-4.33,1.77c-1.36.92-2.85,1.68-4.19,2.66s-3,2-3.83,3.35a8.83,8.83,0,0,0-2.54.1,6.72,6.72,0,0,0-3.06.89c-1.31-.38-2.64-.9-3.86-1.38a28.7,28.7,0,0,0-5-1.52,18,18,0,0,0-5.18.2c-1.59.13-3.12.61-4.7.79a35.46,35.46,0,0,0-5,.92c-1.78.45-3.63.57-5.44.85-1,.16-3.59-.07-4.37.83h0A4.53,4.53,0,0,1,136.29,151.66Z"/><path class="cls-3" d="M257.32,102.61c.79.37,1.27,1.09,2,1.52s1,.93,1.59,1.33c.78.56,1.52,1.1,2.27,1.69s1.66,1.77,2.67,2.78a5.85,5.85,0,0,0-.5.5,5,5,0,0,1-3.63,1.73.05.05,0,0,0,0,.1,6.23,6.23,0,0,0,1.77,0,3.82,3.82,0,0,1-.83.54c-.08,0,0,.14.05.13a5.13,5.13,0,0,0,1.77-.48,7.19,7.19,0,0,1-1.36.88c-.05,0,0,.1,0,.08a4.41,4.41,0,0,0,1.48-.28,3.31,3.31,0,0,0,.79-.64s0,0,0,0A3.83,3.83,0,0,1,264,113.7a0,0,0,0,0,0,.08,2.29,2.29,0,0,0,1.69-.51,1.91,1.91,0,0,0,1.1,1.11,3.57,3.57,0,0,0,2.82-.27,3.06,3.06,0,0,0,1.6-1.7,2.6,2.6,0,0,0,1.36-1l.44-.12a1.69,1.69,0,0,0,.51-.29l.25-.07s.05,0,0-.07a4.94,4.94,0,0,0-.92-.46l-.08,0A2.08,2.08,0,0,0,272,109a27.7,27.7,0,0,1,2.38-1.84,15.75,15.75,0,0,1,3.3-2,37.11,37.11,0,0,0,3.52-1.44c2.8-1.28,5.55-1.13,8.47-.73a11.48,11.48,0,0,1,3.24.94c.71.35.85,1.36,1.64,1.31a.1.1,0,0,0,.07-.17c-.65-.7-.67-1.59-1.62-2.07a26.51,26.51,0,0,0-2.93-1.44,15.65,15.65,0,0,0-8.18-.5c-2.92.51-4.79,2.51-7.24,3.94a44.92,44.92,0,0,0-3.78,2.84,8.28,8.28,0,0,0-.81.68,3.81,3.81,0,0,0-.63-.11,2.15,2.15,0,0,0-2,.06,4.78,4.78,0,0,1-.47-.34c-1.11-.94-2-2.08-3.19-3-2.32-1.81-4.57-4.49-7.64-4.86-1.44-.17-2.83-.22-4.27-.3-1.84-.12-3.67-.61-5.54-.74-2.53-.17-5.39-.54-7.9,0a.1.1,0,0,0,0,.19c2.28.47,4.61.83,6.91,1.13,3.42.45,6.72,1.24,10.14,1.7A6,6,0,0,1,257.32,102.61Z"/><path class="cls-3" d="M216,73.12c-.46-1-2.16-1.58-3.12-2.11A23.31,23.31,0,0,0,208,68.62a15,15,0,0,0-6,0,21.71,21.71,0,0,0-2.86.51c-1.3-.44-3.5,0-5,.47-.56,0-1.1,0-1.5-.08-1.14-.13-2.16-.69-3.31-.76a4,4,0,0,0-2.78,1.06c-1.06.86-3.51,2-5.06,3-2,1.23-4.16,2.4-6.26,3.43,0,0,0,0,0,0,3.93-.74,7.07-3.45,10.74-4.89l2.08-.82a6.36,6.36,0,0,1,3.64,0c.44.08.91.14,1.38.19a.55.55,0,0,0,0,.31c.37.74,1.07.75,1.68,1.25a4.55,4.55,0,0,0,1.69,1.07,3.45,3.45,0,0,0,2.74-1.1,2.67,2.67,0,0,0,.77.09c.32,0,.79.2,1.09,0a.36.36,0,0,0,.09-.08.05.05,0,0,0,0,0h0a.38.38,0,0,0,0-.1c0-.42-.27-.67-.6-.93-.17-.14-.32-.27-.46-.41a1.7,1.7,0,0,0-.08-.89l1.37-.19a17.46,17.46,0,0,1,5.67.41,42.66,42.66,0,0,1,8.88,3S216,73.14,216,73.12Z"/><path class="cls-3" d="M1290.63,95.12a33.54,33.54,0,0,1-5.2-.31c-2.53-.24-5-.45-7.59-.71-5.9-.59-11.8-.57-17.7-.9a35.37,35.37,0,0,0-9.08.44c-2.42.54-4.92,1.48-7.32,1.88a29.25,29.25,0,0,0-6.5,2.42c1.6,4-1.68,7.73-5.63,8.46a7.18,7.18,0,0,1-1,.1,2.8,2.8,0,0,1-1.65.89,1.18,1.18,0,0,1-.4.17.73.73,0,0,1-.7-.07h0a1.14,1.14,0,0,1-.54-.14,2.79,2.79,0,0,1-1.14-1.81,5.23,5.23,0,0,1-1.7,1,.17.17,0,0,1-.14-.31,7.84,7.84,0,0,0,1.06-1l-.51.32a4.71,4.71,0,0,1-2,.91c-.2,0-.24-.28-.06-.34a7.05,7.05,0,0,0,2.58-2.32l0,0c-1,1.08-2.57,2.36-4.06,2.31a.11.11,0,0,1,0-.22,4.83,4.83,0,0,0,1.73-1.22,6,6,0,0,1-.59.39,6.72,6.72,0,0,1-1.7.42.1.1,0,0,1-.09-.18c.3-.21.59-.43.88-.65a4.87,4.87,0,0,1-1.87.14.14.14,0,0,1,0-.25,9.36,9.36,0,0,0,4.28-3.42,15.31,15.31,0,0,0,.76-2c0-.44,0-.86-.07-1.26a13.36,13.36,0,0,1-1.67-.6,95.66,95.66,0,0,1-8.75-4.87c-2.11-1.21-4.23-3.72-6-4.61-1.28-.63-3-1.68-4.49-1.62a2.21,2.21,0,0,1-1.51-.56c.93.77-.75-.15-1-.27-5.69-2.25-11.55-4.3-17.3-6.42-2.13-.8-5.1-1-7-2.41-1-.8-5.35-2.13-5.14-3.46a.13.13,0,0,1-.25,0l0-.14a.16.16,0,0,1,.28-.13c.74.94,2.66,1.4,3.71,2a35.33,35.33,0,0,0,4.63,1.93,33.36,33.36,0,0,0,8.15,1.67,65.25,65.25,0,0,1,9.68,1.82c1.94.51,4.37.81,6.23,1.77a18.18,18.18,0,0,1,7.64,2.8c2.42,1.53,5.07,2.76,7.46,4.39s5.34,3.28,6.88,5.58a15.09,15.09,0,0,1,4.41,0c1.63.15,3.91.32,5.39,1.35,2.24-.73,4.54-1.72,6.62-2.64a48.79,48.79,0,0,1,8.55-2.94c3-.72,6-.13,9,0,2.79.13,5.47.88,8.24,1.08a66.31,66.31,0,0,1,8.76,1.29c3.12.68,6.35.78,9.51,1.15,1.8.21,6.25-.35,7.66,1.18,0,0,0,0,0,0C1293.29,94.79,1291.59,95.06,1290.63,95.12Z"/><path class="cls-3" d="M1153.65,133.05c-1.37.64-2.2,1.9-3.47,2.66-1,.6-1.8,1.61-2.76,2.3-1.35,1-2.64,1.93-4,3s-2.88,3.08-4.64,4.84a9.07,9.07,0,0,1,.88.88c1.8,2.07,3.63,2.66,6.31,3a.08.08,0,1,1,0,.16,10.33,10.33,0,0,1-3.08.05,7.16,7.16,0,0,0,1.45,1c.13.06,0,.24-.09.22a9,9,0,0,1-3.09-.84,12.33,12.33,0,0,0,2.38,1.52.09.09,0,0,1-.07.16,8,8,0,0,1-2.57-.49,5.47,5.47,0,0,1-1.39-1.12l0,.07a6.53,6.53,0,0,0,2.48,2,.07.07,0,0,1,0,.13,4,4,0,0,1-2.94-.88,3.39,3.39,0,0,1-1.91,1.93,6.21,6.21,0,0,1-4.91-.48,5.21,5.21,0,0,1-2.79-2.95,4.46,4.46,0,0,1-2.37-1.71c-.26-.06-.52-.13-.77-.21a3.15,3.15,0,0,1-.88-.5,3,3,0,0,1-.45-.12.08.08,0,0,1,0-.12,8.54,8.54,0,0,1,1.6-.8l.14-.08a3.61,3.61,0,0,1,1.37-2.48,47.72,47.72,0,0,0-4.15-3.21c-1.84-1.16-3.64-2.74-5.74-3.43a61.82,61.82,0,0,1-6.14-2.52c-4.87-2.21-9.65-2-14.75-1.26a20.36,20.36,0,0,0-5.64,1.63c-1.23.62-1.48,2.38-2.85,2.29a.18.18,0,0,1-.13-.3c1.14-1.22,1.17-2.77,2.82-3.6a46.57,46.57,0,0,1,5.11-2.52,27.08,27.08,0,0,1,14.24-.85c5.09.87,8.34,4.36,12.6,6.85a73.58,73.58,0,0,1,6.59,4.95,14.4,14.4,0,0,1,1.41,1.18,5.29,5.29,0,0,1,1.1-.18,3.73,3.73,0,0,1,3.51.09,8.52,8.52,0,0,0,.83-.59c1.93-1.64,3.5-3.62,5.54-5.21,4-3.15,8-7.81,13.32-8.46,2.5-.3,4.92-.38,7.43-.53,3.21-.2,6.38-1.05,9.64-1.28,4.41-.3,9.39-.93,13.76,0a.17.17,0,0,1,0,.32c-4,.82-8,1.45-12,2-6,.78-11.71,2.16-17.66,3A10.33,10.33,0,0,0,1153.65,133.05Z"/><path class="cls-3" d="M349,428.05l-.35-1.51-.23,0C347.1,427.07,347.55,427.64,349,428.05Z"/><path class="cls-3" d="M555,466l-.15,0-.31,1C555.48,466.7,555.79,466.31,555,466Z"/><path class="cls-3" d="M1920,500.32l-10.69-.19-22.2,0,.19-2a13.1,13.1,0,0,1,3.12-4.59c-16,0-24-23-37.88-34.45l-2.41-1.48-3.08-4.28,8.74.48c18.54,2,34.32,5.94,53.81,5.94-1.65-6.28-17.3-15.55-16.5-18.29,1.12-3.88,7.87-4.58,7.14-8.46-.11-.61-11.62-2.06-13.28-2.8-5.73-2.57-18.87-12-22-15.49,27.09-13.83-31.55-25.34-45.7-25.34,10.71-2.77,22.73-2.81,35.06-2.81,15.53,0,4-14.07-6-14.07,35.25,0,14-10.8-1.39-25.35-5.59-5.25-8.63-18-13.48-25.32-6.71-10.13-19.72-17.69-12.35-21.11,6.84-3.19,18-2.92,24.56-7.05,16.7-10.61-11-17.53-12.22-23.94-1-5.46,6.91-7,4.74-14.07-1.89-6.14,1.68-11.67-3.21-15.48-6-4.63-11.73,1.94-15.69-8.44-2.56-6.68-21.4-8.64-15.34-15.17,18.71-5.4,22.09-6.12,19.46-13-1.95-5.09-3.53-15.09-13.94-14.9.61-2.77,17.23-6.63,16.09-9.7-2-5.32-16.33-11.68-17.44-17.62-1.57-8.41-1.88-7.69-1.16-22.08.47-9.27-9.15-11-7-16.59,2.53-6.54.11-30.37-2.33-27.49-5.59,6.6-4.71,32.68-10.54,38.46-2.42,2.4-8.54.4-11.6,3.65-7.11,7.58-9.5,20.52,4.7,18.41-2.51,6.12-11.86,18.53,9.49,22-21.14,1.15,2.56,10-22.12,14.61-19.79,3.7,14.88,15.76,6.66,25.47-4.56,5.4-9.19,9.22-19.86,14.54l-4.77,2.26.5-3.92c1.8-3.62,6.45-6.22,4.23-12.45-2.59-7.22,1.27-13.73-4.74-18.21-7.29-5.45-13.66,2.29-19-10-7.45-17.17-8.82-16.1,14.14-21.75,10.58-2.58-35.78-4.87-40.43-16.1-.43-1,1.92-2.52,5.29-4.47l1.05-.59,3.09,3.18c4.48,2.95,9.32-1.68,13.16-2.16,4.13-.51,1,10.13,9.89,7.21,2.32-.77,4.68-4.8,5.77-5.05,2-.44,7,11.88,9,10.1,4.75-4.17,7-7.07,0-10.1,5.68-9.89-9.34-13.07-20.57-14.94l-3.93-.64.19-.26c4.49-7.08-11-2.46-16.54-8-3.12-3.11,2.79-17.87,2.46-19.22-2.35-9.9-12.64-6.28-12.64-23.19,0-10.91-2.86-14.6-7.9-19.88-3-3.13-5.22-8.37-7.9-5-6.19,7.78-1.42,11.41-7.9,18.21-9,9.45-20.56,26.75,3.15,23.2-2.69,7.48-6.57,22.14-15.22,29.05-6.37,5.12-18.23,2.38-19.3,8.06-1.44,7.56,21.14,5.67,23,12.08,1.18,4.12-.44,9.23-3.22,14.38l-1.41,2.36-3.63,1.31c-3.61,1.85-6.12,4.34-5,7.39l1.32,1.71-1.27,1.6-1,0c-4.91.36-5.65,1.76-5.67,5.31l0,2.79-1.34,1.57a43.11,43.11,0,0,1-5.72,5.33l-.85.61-3.56.15a6.16,6.16,0,0,0-4,2.3l-2.06,3.74-1.15.67a53.26,53.26,0,0,0-11.53,8.89c-2.85,3-8.5,23.15-1.57,20.69l.49-.25-1.25,2.13c-1.85,4.08-2.31,8.3,2.16,10.89,7.32,4.28,6-9.27,9.06-7.93,2.09.92,1.2,5.24,3.3,4.33,7.43-3.25,8.23-10.81,10.71-17.32,0,26.53,18.11,13.95,18.11-3.6l2.73,1.68-.35.37c-1,1.3-1.75,2.59-1.56,3.75,1,6.15,14.45,11.29,11.92,18.4-2.92,8.15-10.88,3.41-17.39,8.28a4.62,4.62,0,0,0-1.59,2.42l-.35,2-4.34,2.93c-1.93,1.26-3.78,2.45-5.56,3.41-.85.48-5.84,4.26-6.57,3.62-11.9-10.44-38,9.43-42.82,20.2-.86,1.9-2,4-3.09,6.2l-.77,1.55-7.56-2-2.25-.39.1-.13c2.27-4-6.32-1.41-9.75-4.58-1.89-1.76.85-10.15.6-10.92-1.73-5.64-7.45-3.57-8.16-13.2-.44-6.22-2.23-8.3-5.31-11.31-1.81-1.78-3.31-4.76-4.71-2.82-3.18,4.42-.32,6.49-3.72,10.35-4.75,5.38-10.6,15.23,2.76,13.2-1.23,4.26-2.81,12.59-7.46,16.53-3.41,2.9-10.28,1.34-10.64,4.58-.51,4.29,12.25,3.22,13.57,6.87.83,2.34.12,5.24-1.23,8.19l-.73,1.34-2,.74c-2,1-3.3,2.47-2.51,4.2l.82,1-.66.92h-.59c-2.77.21-3.16,1-3,3l.13,1.58-.67.9a24.1,24.1,0,0,1-3,3l-.46.35-2,.08a3.22,3.22,0,0,0-2.19,1.31l-1,2.12-.62.4a26.44,26.44,0,0,0-6.19,5.05c-1.51,1.71-3.88,13.16,0,11.77l.26-.14-.63,1.21c-.88,2.31-1,4.71,1.68,6.19,4.35,2.43,3-5.27,4.83-4.52,1.21.53.9,3,2,2.47,4.09-1.85,4.24-6.16,5.37-9.86,1.12,15.11,10.89,7.95,10.17-2l1.6,1-.18.2a2.9,2.9,0,0,0-.73,2.15c.83,3.49,8.7,6.41,7.55,10.46-1.33,4.63-6,1.94-9.54,4.71a2.43,2.43,0,0,0-.81,1.38l-.11,1.15-2.35,1.67c-1,.72-2,1.39-3,1.95-.48.26-3.18,2.42-3.62,2a8,8,0,0,0-6.38-1.56l-5.24,2,0-.1c0-3.73-1-5-2.71-6.8-1-1.08-1.79-2.87-2.71-1.72-2.12,2.68-.47,3.93-2.71,6.25-2.71,2.85-6.07,7.74-1.43,8.1l1.53-.08-.22.18a16.77,16.77,0,0,0-3.62,5.21c-1.63,4.32-5.31,10.36-4.51,15.5l.06.19-.76.39L1500,382c11.94,1.23,6.13-4.71,1.6-7.95-3.27-2.34-.88-3.59-4-6.26-1.36-1.15-2.47.64-4,1.71-2.52,1.81-4,3.08-4,6.83,0,5.79-5.19,4.56-6.37,7.94l-1.94,4.33-1.2-.42a4,4,0,0,1-1.18-1.7c-1-2.26-7.39-2.93-5.47-5.14,6.24-1.81,7.37-2.07,6.37-4.39-.75-1.71-1.46-5.11-5-5,.16-.93,5.72-2.24,5.29-3.29-.76-1.79-5.74-3.94-6.21-6-.68-2.85-.77-2.61-.77-7.48,0-3.12-3.3-3.71-2.66-5.6.74-2.21-.49-10.29-1.27-9.31-1.77,2.24-1,11.07-2.9,13-.78.8-2.88.13-3.86,1.24-2.27,2.56-2.86,6.93,1.92,6.23-.76,2.06-3.69,6.26,3.58,7.43-7.13.38,1,3.38-7.23,4.95-6.63,1.25,5.31,5.34,2.7,8.62-1.45,1.82-2.94,3.12-6.47,4.93s-8.89,4-10.32,5.49c-.87.93,4.19,4.35,7.43,5.1,6.66,1.55.39-4.13,5.76-4.13,6,0,3.55,5,2.27,8.57-.84,2.35-3.13,1-5,2.38-.9.68-.44,2.52-.91,3.82-1.53,4.29-10,4.54-10,9.05,0,2.85,7-.61,8.2,1,.58.72-.59,2.11,0,2.85h2.27c2.87,3-3.21,3-3.64,3.33-1.16,1-.11,2.47-.91,3.81-1.66,2.79-3.19,3.83-5,5.7.5,0,5-.25,7.31-.19l.59.1-.59.56a1.44,1.44,0,0,0-.31,1.36l.43.67-1.29.93c-1.67.87-3.64,1.48-4.31,1.83-.41.21.38,1.18,0,1.42a27,27,0,0,0-4.7,3.64l0,0h0c-.84-.69-1.69-1.39-2.5-2.13-2.38-2.11-3.87-7.29-6-10.22-2.92-4.08-8.33-7.14-5.42-8.54,2.69-1.28,7.21-1.17,9.77-2.83,6.52-4.28-4.81-7.07-5.44-9.66-.52-2.21,2.65-2.83,1.63-5.69-.89-2.48.44-4.71-1.63-6.24-2.49-1.88-4.68.78-6.5-3.42-2.56-5.89,3.3-6.24,1.09-11.37-.58-1.34-9.88-3.55-9.28-4.9.72-3.57,10.9.86,10.29-.45s-5.68-5.76-9.41-4.82c-1.9-1.76,1.76-5.13,1.35-6.87-.83-3.4-4.36-2.16-4.36-8,0-3.75-1-5-2.69-6.83-1-1.07-1.78-2.86-2.72-1.7-2.12,2.66-.48,3.91-2.71,6.25-3.09,3.25-7,9.18,1.08,8-.59,1.67.36,3.46-3.78,11-.78,1.41,3,6.66,2.13,8.25-2.5-1.8-17,5.06-16.33,9-.2-.48,18.15-2.55,16.86.62-.87.76-14.2,2.1-15.07,3.9.41-.58,16.47,2.7,13.65,6.52-3-1.19-20.22,1.29-18.61,5,11.33-2.09,20,.27,18.44,4.55-1,2.8-3.73,1.17-6,2.85-1.08.8-.54,3-1.08,4.55-1.15,3.18-5.52,4.51-8.64,6.35l-.26.18-1.64-1.5a4.58,4.58,0,0,0-3.29-.88c-1.07-1,1-2.87.74-3.85-.45-1.91-2.43-1.2-2.43-4.45a4.5,4.5,0,0,0-1.49-3.82c-.58-.59-1-1.6-1.53-1-1.18,1.49-.26,2.2-1.51,3.51-1.74,1.81-3.94,5.13.6,4.44a14.27,14.27,0,0,1-2.11,6.17c-.44.78,1.68,3.73,1.18,4.61-1.4-1-9.47,2.83-9.13,5-.11-.26,10.14-1.43,9.42.35-.47.42-7.94,1.17-8.42,2.18.23-.32,9.21,1.53,7.64,3.64-1.66-.66-11.32.73-10.41,2.82,6.33-1.16,11.18.16,10.33,2.54-.58,1.57-2.11.66-3.35,1.59-.6.46-.3,1.68-.61,2.55-1,2.86-6.67,3-6.67,6,0,1.91,4.63-.4,5.45.65.4.48-.38,1.4,0,1.9h1.53c1.92,2-2.14,2-2.43,2.23-.79.67-.07,1.65-.61,2.54a19.13,19.13,0,0,1-3.33,3.82c.44,0,5.64-.31,5.76,0,.72,1.9-3.65,3-4.55,3.49-.28.14.26.8,0,1-5.19,3.25-5.76,6.34-8.8,10.17-1.45,1.83,4.07-.42,5.16.95,1.66,2.08,5.73,1.89,8.8,3.17-.9,1-3,1.34-4.55,2.55-3.61,2.75-6.45,5.65-10.63,8.28l-.87,1.12-31.74,8.7c-3.85-3.75-5.22-9.52-19.28-7l-30.12,32.9L925.76,523.18c-48.33-2.29-74.57,6.17-109.62,21.14-35.29-.3-55.67-28.81-87.53-23.08-23.56,2.37-28.85-21.88-52.41-22.64l-23.54-.35-.16-1.39c-1.86,0-2.64-3.54-4.89-3.54,2.44,0,4.15.61,6.4.61-.16-.53-1.58-1.35-1.51-1.59s.66-.38.58-.73c0-.05-1-.16-1.17-.23a11.29,11.29,0,0,1-2-1.34c2.28-1.21-2.86-2.2-4.07-2.2a12.16,12.16,0,0,1,3-.25c1.34,0,.29-1.22-.58-1.22,3.06,0,1.17-.93-.23-2.2-.51-.45-.83-1.57-1.28-2.19-.64-.88-1.79-1.54-1.16-1.83s1.54-.25,2.08-.61c1.41-.93-1-1.52-1.16-2.08s.57-.61.35-1.22.09-1-.35-1.34-1,.18-1.4-.72c-.54-1.27-.64-1.19,1.05-1.6.77-.2-2.64-.37-3-1.19-.09-.21,1.26-.66,1.67-1.31s-.8-.18-1.21-.6c-.24-.22.21-1.31.18-1.41-.17-.72-.92-.46-.92-1.71a1.71,1.71,0,0,0-.59-1.46c-.22-.22-.38-.6-.58-.37-.46.58-.09.85-.59,1.35-.65.69-1.51,2,.25,1.71a4.92,4.92,0,0,1-1.13,2.13c-.47.39-1.35.18-1.42.6s1.56.41,1.69.88c.24.82-1,2.14-1.43,2.67l-.11.1v-.16c-.58-2.13-7.43-5.29-8.68-4.39-.47-.83,1.55-3.64,1.13-4.39a13.86,13.86,0,0,1-2-5.88c4.34.66,2.24-2.51.58-4.24-1.18-1.23-.31-1.91-1.44-3.33-.5-.61-.91.33-1.45.91a4.28,4.28,0,0,0-1.44,3.63c0,3.1-1.87,2.44-2.32,4.25-.23.93,1.74,2.72.72,3.67-1.74-.45-4,1.33-4.79,2.24l-.18.26-1.58-.64a2.94,2.94,0,0,0-2.07-.07c-.44-.88,1.91-3.81,1.53-4.61-2-4.21-1.41-5.22-1.69-6.15,4.49.69,2.53-2.63.93-4.46-1.16-1.29-.19-2-1.26-3.49-.47-.64-1,.35-1.6.95a4.86,4.86,0,0,0-1.77,3.83c-.24,3.23-2.17,2.54-2.76,4.43-.29,1,1.61,2.87.48,3.85-2.05-.52-5.07,2-5.45,2.71s5.48-1.75,5.73.25c.28.74-5,2-5.39,2.74-1.43,2.85,1.82,3.06.17,6.36-1.18,2.34-2.3.85-3.78,1.9-1.21.87-.57,2.1-1.16,3.5-.68,1.6,1.06,1.94.68,3.19-.44,1.44-6.9,3-3.43,5.39,1.36.93,3.89.87,5.36,1.59s-1.58,2.48-3.37,4.77l-3.45,5.24-4.14,0c-7.2-.11-14.6-.3-22.31-.65l-22.44-1.36L541.54,490l-.28-.21,2.43,1.14c1.74,1,2.41,3.51,4.55,4,.89.19,1.49-.19,2,.24a3.25,3.25,0,0,0,1.38-3.49c.34-1.67,1-3.3,1.23-5,.9-6.27-4.58-4.55-7.36-8.48-.77-1.09-1.39-3.15-2.54-4s-3.7-.24-5.63-.22l-.94-.15-.52-.92c-.85-1.61.55-3.35-.76-4.57-.48-.45-7.8-.38-4.08-4h2.73a1.19,1.19,0,0,0,.26-.79v-.09l.57.14a10.49,10.49,0,0,1,1.41.64c2.17,1.12,2.49,3.77,4.82,4.23,4,.78.54-.83,3.86-2.24,3.1-1.32,5.79-1,9.14-.5l1.07.24.08-.3c.5-3.13-1.74-6.78-2.74-9.41-1.38-3.73-9.91-10.6-14.29-7-.26.22-1.89-1.09-2.18-1.25-.58-.34-1.18-.74-1.82-1.18l-1.43-1-.07-.71a1.44,1.44,0,0,0-.49-.83c-2.12-1.69-5-.05-5.8-2.87-.69-2.45,4.09-4.23,4.59-6.34a1.67,1.67,0,0,0-.45-1.3l-.1-.13,1-.59c-.44,6.07,5.5,10.41,6.18,1.25.68,2.24.78,4.85,3.26,6,.69.32.51-1.17,1.25-1.48,1.09-.47.3,4.22,2.92,2.73,1.61-.89,1.56-2.35,1-3.74l-.38-.76.17.1c2.33.84.89-6.11,0-7.15a16.22,16.22,0,0,0-3.76-3.07l-.38-.24-.62-1.28a1.92,1.92,0,0,0-1.33-.8l-1.23,0-.28-.21a14,14,0,0,1-1.84-1.85l-.43-.54.08-1c.09-1.23-.13-1.71-1.82-1.84l-.36,0-.39-.54.49-.59c.49-1.06-.31-1.93-1.52-2.57l-1.23-.45-.42-.82c-.84-1.77-1.26-3.53-.75-5,.78-2.21,8.55-1.55,8.24-4.17-.23-2-4.39-1-6.47-2.78-2.81-2.39-3.78-7.45-4.53-10.05,8.11,1.24,4.56-4.74,1.69-8-2.07-2.36-.33-3.61-2.28-6.3-.84-1.17-1.75.64-2.85,1.71a8.84,8.84,0,0,0-3.23,6.88c-.43,5.84-3.89,4.59-5,8-.15.46,1.52,5.57.38,6.64-2.09,1.93-7.31.32-5.93,2.77l.06.1-1.37.23c-3.93.64-9.2,1.72-7.49,5.15-2.48,1-1.79,2.05-.25,3.49.64.61,2.7-3.64,3.36-3.49.38.08,1.11,1.48,1.88,1.75,3,1,2.18-2.68,3.59-2.5s2.88,1.78,4.51.75l1.14-1.1.35.2c1.12.68,1.89,1.21,1.71,1.54-1.89,3.9-18,4.68-14.37,5.58,7.8,1.94,7.36,1.57,4.33,7.51-2.13,4.23-4.14,1.56-6.79,3.43-2.19,1.55-1,3.79-2.11,6.29-1.23,2.87,1.93,3.51,1.23,5.74s-9.7,4.71-7.75,8.17l.18.24v0c-1.53,1.81-3.72,2.08-2.93,5,.28,1.05,1.5,2.05.35,3-1.79,1.48-1,2,0,3.73.81,1.42,4.87-3.61,5.74-4.48s3-4.53,3.3-2.5c.18,1.16,1.87,1.33,4.15,1.25l.89-.05-.32.45c-1.26,1.6-4.23,3.76-6.25,6.35a24.19,24.19,0,0,0-1.69,2.56L494,464.6l-.84-.69c-2.7-1.46-7.72.34-8.83,2.8-1.46-1.85-4.32-1.71-6.56,0-3.25,2.52-5.61,7.21-9.75,9,.77,1.57-4.73,3.43.49,5a10.23,10.23,0,0,0,2.53.5c3.19.13,5-.72,7.57-2.5,1.17-.79,2.48-2.74,2.38-1.49l-.05.79-.05.09a1.08,1.08,0,0,0-.08.58l.08.2-.16,2.49a5.74,5.74,0,0,0,1.13,3.57c1.27,1.55,3.14,2,5.3,1.88l3.22-.65,2.19.08a35.26,35.26,0,0,1,6.77,1,54.36,54.36,0,0,0-9.25,1.26l-1.82.58-.51-.07-9.12-.54.61-.64c1-.69,1.92-1.39,1.64-2.58-.1-.38-7.19-1.28-8.22-1.73-3.59-1.57-11.93-7.32-14-9.47,16.16-8.47-20.1-15.5-28.77-15.5a54.25,54.25,0,0,1,10.3-1.51l3.3-.11,4.76,1c3.24.24,6.13-.5,8.19-2.82a9,9,0,0,0,2.09-5.36l0-3.75.17-.32a1.9,1.9,0,0,0-.08-.87l-.07-.14v-1.19c0-1.87,1.79,1.06,3.43,2.26,3.7,2.66,6.33,3.94,11.13,3.75a14.66,14.66,0,0,0,3.87-.75c8-2.34-.07-5.15,1.27-7.5-6-2.66-9.06-9.74-13.69-13.52-3.17-2.56-7.45-2.8-9.85,0-1.42-3.7-8.79-6.41-13-4.23l-1.36,1.06L438.7,421a33.61,33.61,0,0,0-2.24-3.86c-2.78-3.86-7-7.13-8.74-9.53l-.41-.69,1.31.08c3.44.13,6-.14,6.39-1.88.71-3.07,3.32,2.26,4.71,3.75,1.22,1.3,6.75,8.89,8.13,6.76,1.7-2.59,3-3.41.45-5.62-1.63-1.42.31-2.92.85-4.52,1.5-4.35-1.77-4.75-3.86-7.5l0-.06.29-.35c3.34-5.21-9.92-8.88-10.74-12.32s4-4.29,2.47-8.62c-1.35-3.75.66-7.14-2.47-9.46-3.79-2.84-7.11,1.18-9.87-5.18-3.87-8.93-4.58-8.37,7.36-11.31,5.5-1.34-18.6-2.53-21-8.37-.23-.53,1-1.3,2.74-2.33l.55-.3,1.6,1.65c2.34,1.54,4.85-.87,6.85-1.12,2.15-.28.53,5.27,5.14,3.75,1.2-.4,2.43-2.5,3-2.63,1.05-.23,3.64,6.18,4.7,5.25,2.47-2.16,3.61-3.66,0-5.25,2.95-5.14-4.87-6.79-10.7-7.77l-2.05-.34.1-.13c2.33-3.68-5.68-1.28-8.6-4.18-1.61-1.61,1.46-9.29,1.28-10-1.22-5.14-6.57-3.27-6.57-12.06,0-5.67-1.5-7.6-4.11-10.34l-.32-.39.27-.95a10.82,10.82,0,0,0,.3-2.24c0-.77-2.14-1.22-2.14-1.89,0-1.27,2-1.8,1.71-4.51,0-.35-.31-4-.85-4.11-2.42-.53-4.35,9.48-5.57,11.63-.74,1.28.48,1.33,1.22,1.55l.23.16-.48.85c-.82,2.42,0,4.13-2.6,6.79-4.68,4.92-10.67,13.91,1.65,12.07-1.4,3.89-3.4,11.51-7.92,15.1-3.3,2.66-9.48,1.23-10,4.2-.74,3.92,11,2.94,11.95,6.28.61,2.13-.23,4.79-1.67,7.48l-.74,1.21-1.89.7c-1.87.95-3.18,2.25-2.58,3.84l.68.88-.66.83-.54,0c-2.55.19-2.94.91-2.94,2.77v1.44l-.69.82a21.67,21.67,0,0,1-3,2.77l-.43.32-1.86.08a3.21,3.21,0,0,0-2.1,1.2l-1.06,1.94-.61.35a28.36,28.36,0,0,0-6,4.61c-1.48,1.57-4.42,12.05-.8,10.77L366,383l-.64,1.11c-1,2.11-1.21,4.3,1.12,5.67,3.81,2.22,3.12-4.83,4.71-4.13,1.09.47.63,2.72,1.71,2.25,3.86-1.7,4.28-5.62,5.57-9,0,13.79,9.42,7.26,9.42-1.89l1.41.88-.17.19a2.69,2.69,0,0,0-.81,2c.53,3.18,7.5,5.86,6.19,9.56-1.51,4.25-5.66,1.78-9,4.31a2.42,2.42,0,0,0-.84,1.27l-.16,1.05-2.28,1.52c-1,.66-2,1.28-2.88,1.78-.44.24-3,2.21-3.42,1.88-6.19-5.43-19.76,4.9-22.26,10.5-1.78,4-5.54,9.47-5.16,14.16l.1.47,1.63-.37c5.1-.75,9.19-1.23,13.69.74,4.84,2.13-.48,4.56,5.57,3.38,3.58-.69,4.34-4.68,7.71-6.38a19.67,19.67,0,0,1,2.21-.94l.88-.21,0,.13a1.59,1.59,0,0,0,.3,1.17c.88,1.1,3.13-1,4.1,0,5.22,5.46-5.8,5.35-6.57,6-2.1,1.84-.19,4.45-1.64,6.88l-.88,1.38-1.43.22c-2.93,0-6.47-1-8.49.34-1.83,1.25-3,4.36-4.29,6-4.61,5.91-12.67,3.33-12,12.75.18,2.53,1,5,1.28,7.51a4.6,4.6,0,0,0,1.71,5.26c.77-.68,1.63-.09,3-.39,3.25-.7,4.53-4.47,7.27-6l3.78-1.69-.45.32c-9.8,7.65-11.9,15.2-19.11,24.26-3.94,5,11-1.13,14,2.6a9.55,9.55,0,0,0,.93,1l.91.77-1.82.83-3.05,3.17L347.67,497l-9.45,0-.64-1.08a4,4,0,0,1,1.25-3.68c-8.62,0-12.3-16.48-22.78-16.48,11.35,0,19.33,2.83,29.82,2.83-.8-2.53-7.3-6.28-7-7.38.38-1.56,3.08-1.85,2.71-3.42-.05-.24-4.73-.83-5.42-1.13a46.2,46.2,0,0,1-9.21-6.25c10.64-5.59-13.27-10.24-19-10.24,4.27-1.1,9.12-1.13,14.11-1.13,6.26,0,1.31-5.67-2.73-5.67,14.24,0,5.46-4.38-1.08-10.24-2.36-2.13-3.86-7.29-6-10.24-2.92-4.08-8.33-7.12-5.42-8.52,2.69-1.28,7.21-1.17,9.75-2.83,6.54-4.28-4.79-7.08-5.42-9.68-.52-2.19,2.65-2.82,1.63-5.67-.88-2.5.43-4.71-1.63-6.26-2.49-1.86-4.69.78-6.5-3.41-2.56-5.9,3.3-6.25,1.08-11.36-2.08-4.81-5.48-10.44-7-17.06-.82-3.4-4.35-2.15-4.35-7.94,0-3.75-1-5-2.71-6.83-1-1.07-1.77-2.87-2.71-1.71-2.12,2.67-.48,3.92-2.71,6.26-3.1,3.24-7.05,9.18,1.08,7.95A107.57,107.57,0,0,0,283,370.65c-.67,3.51-2.07,4.8-3.68,5.72l-2.17,1.11-2.33-1.21c-.74-3.82-2.3-5.72-6.21-7.67-6.39-3.19-7.65.26-7.65-6.39,0-4.89-2.3-8.49-7.67-9.28-.83-.11-1.85-1.37-3-2.73l-1-1.06-.28-.87a16.44,16.44,0,0,0-2.74-4.45c-6.39-6.71,3-1.47-3.34-9.45-4.68-5.9,1.36-4,2.47-10l.06-.46h.92a6.09,6.09,0,0,0,2.25-1.33c0,2.45-1.59,12,.56,11.25,2-.69,6.64-4.07,6.7-3.91,1.41,3.73,2.07,8.31,7.25,8.31,6.81,0-2.79-10.25-3.34-10.76-1.93-1.67,1.2-3.57.55-5.86-1.16-4.07-8.27-5.52-12.28-6.86L244,313.3l-.32-1.34c-1.81-7-4.31-14.46-6.53-20.67a20.76,20.76,0,0,0,3.68.31H241l.48,1.6c.89,3.9,6.24,2.68,6.7,5.88.32,2.29.22,5.09,1.66,6.36,4.53,3.95,5-4.76,4.48-7.83-.31-1.85-4.71-7.35-8-10.34L246,287l-.15-.59c-.92-3.12-4-7-6.63-9.85-3.88-4.05-1.45-6.35-4.37-10.69l-.51-.7-.18-2.29c0-3.54,8.11-1.2,3.9-7.35-1.52-2.25-5.15-2.13-3.9-4.89.77-1.67-.18-5.27-2.24-5.88-2.95-.85.45,4.94,0,6.86-.65,2.93-4.68,1.79-3.9,5.86,1,5.38-.56,5.65.32,10l.32,1.16-.63.67a13,13,0,0,0-3.31,5.88l-.22,1.09-2.36,1.28a22,22,0,0,1-9.2,2.88c-5.14.5-14.3,11.14-11.17,16.63.55.95,1.63,1,2.79.5,3.06-1.33,4.31-6.49,5.59-9.29s5.81.73,10,1.69l.23,0-1.1.9L218,292l-2.85.2c-1.07.19-3.54,4.59-3.92,5.87-1.11,3.91-20.09,10.32-11.72,17.61-5.66,2.49,12.15,6,8.38-3.91,1.74,1.52,7.76,6.09,8.93,1.95a9,9,0,0,0,0-5.38c-.71-1.86-5-4.4-2.79-4.4a5.74,5.74,0,0,0,3.82-1.24l.23-.37.07.13c2.43,4.25,5.84,8.77,4.58,11.62a24.16,24.16,0,0,0-.88,2.38l-.37,1.35-.38.06c-3.55.61-7.62,1.75-9.47,4-.13.16-.28,2.84-.36,2.88-9.31,5.44-20.56,18.52-16.06,30.38,0-3.46,3.12-2.07,4-3.21,1.15-1.44,4.42-11.87,4.73-11.82a23.31,23.31,0,0,0,5,.19l3.45-.57-.58.33c-2.18,1.22-4.46,2.61-6.83,8.08-2.53,5.83,5.06,6,7.07,7.11l.34.27-1.74.19c-4.8.76-7.8,2.34-7.8,8.06-1.5-1.31-4.19-.53-5.85.64-2.07,1.46-.51,4,0,5.75.35,1.19-2.18.53-3.29,1.28-3.82,2.61-7.29,13.76-4,18.55s8.39-7.25,8.39-9.27c9.26,4.07,7-7.42,9.12-11.2a7.18,7.18,0,0,0,1.06,2.26l.12.11.24.66c1.05,2.32,3.63,3.75,3,6.57-.85,3.6-11.55,5.42-11.72,9.46v.16h-.06a1.28,1.28,0,0,0-1,.61c-1,2.05-1.72,4.29-4,5.75-1.47.93-5.85-.05-5.85,2.24l-.3,12.13-.14-.21c-1.82-1.34-4.42-2.51-4.69-3.64-.47-1.92,2.29-2.46,1.42-4.94-.77-2.15.36-4.09-1.42-5.43-2.18-1.62-4.08.69-5.66-3-2.21-5.13,2.86-5.45.95-9.88-1.82-4.18-4.76-9.07-6.12-14.81-.71-3-3.78-1.89-3.78-6.93,0-3.25-.85-4.34-2.34-5.91-.9-.93-1.57-2.5-2.37-1.49-1.84,2.32-.41,3.39-2.35,5.43-2.69,2.82-6.13,8,.93,6.92a94,94,0,0,0-3.75,12.83c-1.19,6.1-4.85,4.5-7.56,7.9-3,3.74-4,8.71-7.06,11.87a6.23,6.23,0,0,0-.86,1.22l-.35.87-3.68-2.75a54.8,54.8,0,0,0-11.83-5.85l-4.56-1.36-.36-2.43a41.38,41.38,0,0,1,.16-11.63l.33-1.54,1.56,4c1.62,3.65,3.68,6.84,5.47,5.8,2.1-1.24,2.5-7.05,3.62-9.55,0,7.95,2.42,13,6.66,18.55,0-9.08,6.83-14.27,6-23.3-.23-2.54-.51-5.21-2.41-6.89-3.14-2.73-11.27,5.17-12.7,2.64-1.15-2-1.79-4.36-3-6.25l-2.44-2.34.78-.86c5.44-6.13,6.56-9.61,6.42-13.26l-.13-1.45.59.69a9.42,9.42,0,0,0,3.4,1.88c2.2.65,4.88-1.35,6.24-2.55-2.54,4.45,1.1,5.1,3.75,5.1,1.82,0,1.9,4.3,5.4,3.28,3.15-.92,1.2-6.19-2.5-6.19,3-3.49-1.13-8.79-5.4-8.37-2.91.27-7.4,3.2-7.9,1.45a9.31,9.31,0,0,0-1-2.3L134.41,333l.25-.52a10.45,10.45,0,0,0,1-7.64,40.89,40.89,0,0,1-.59-8.61l0-.57.07.05a5.08,5.08,0,0,0,5.29-.73c1.12-1,1.15,8.2,1.67,9.46,1.52,3.66,5.21,9.06,6.66,1.46.82-4.37,3-10.39,1.24-14.58-1-2.41-4-3-5-4.35-1.93-2.82-5-6.3-9.15-6.57a76.92,76.92,0,0,0-9.59.13l-3.45.2-.54-1.29c-1.79-3.28-6-5.37-8.47-7.77l-.51-.56,3.74,2.11a21.51,21.51,0,0,1,3.86,2.46c.56.49,3.62,2.68,4.57,1.44,1.15-1.51-1.64-6.7-2.49-7.65-2.42-2.62-5.87,0-9.16-1.82l-1.51-1.17,0-.13c.1-.19.18-.4.29-.59,5.14-2.35,8.43-3.83,10.35-5.3l.67-.58.2.75a1.54,1.54,0,0,0,.77.83c5.45,2.39,4.6-3.9,7.08,4.73,2.12,7.47,0,4.34,3.32,0,2.67-3.52,8.24-1.89,9.56-6.55,1.6-5.62-10.68.85-7.9-4,.67-1.15,1.67-4-1.25-4,1.16-2-6.1-5.46-9.13-5.46h.41c-1.91-2.52-3-3.85-4.73-4.29l-.89-.12-.36-.61c-1.28-2-3-3.36-5.48-3.29.22-2.07,6.14-4.76,8.75-7.28l.31-.33,1.92,2c3.5,4.55,5.12,12,16.28,10.32,4.77-.69-2.3-3.91-3.34-4.36-1.93-.85,1-3.75-1.24-6.2-1.75-1.91-4.52-1.46-7.48-1.46,6.51-1.43,2.47-6-1.25-8-2.49-1.31-4.26.69-6.23,1.22l-.3.05-1.6-1.94c-3.15-3.68-7-7.56-7.58-11.28-.08-.52-.15-1-.23-1.47l-.19-1.2,1.07.25c2.55,1.14,5.57,3.54,9.66,2.36-2.14,1.86,14.63,13.58,13.3,6.55-.18-.88-2.22-8.3-2.9-9.12-1.73-2-8.21-1.8-11.23-1.8-1.75,0-3.52-3.24-7.07-3.66l-3.58-.38,0-.32c-.2-2.68-.25-6.09-.25-13.28,0-9.28-6.17-11-5-16.6,1.39-6.53-.92-30.37-2.38-27.5-3.34,6.62-1.94,32.7-5.46,38.48-1.44,2.4-5.4.4-7.24,3.65l-.26.5-2-.56c-3.33-.72-10.87,6.13-7.9,8.74-6.5,0-12,5.11-14.14,10.56-.62,1.63-.51,5.17-1.66,6.2.59-.53,3.71-3.35,4.58-3.65h3.73c1.33-.77-1.22-4.73,2.91-5.47,1.12-.19,3,2.65,4.58,2.92,2,.35,1.69-3,1.25-4-.77-1.68,2.43.39,4.15-.37,1.37-.59.84-3.2.84-4.37,0-.75.23-1.12.59-1.25l.3,0,0,.43c-.58,5.46,1.08,10,6.68,8.7-.34,1.53-1,3.45-1.46,5.52l-.43,2.18-1.57.35c-1.61.61-3,1.43-4.48,1.16-1.12-.2-2.63-1.62-4.16-1.09-3,1.05-3.33,6.77-4.56,6.55-1.89-.32-5,2.19-5.41,3.65-.36,1.25-12.91.26-11.64,8,.18,1.17,3.71,1.49,5,2.18,1.89,1-7.23,8,.41,8,2.66,0,2.45-5.67,2.91-7.28.85-3,9.18-.54,12-.73,7-.47.27-10.4,3.33-11.29.91-.26,4.78.56,5.41,0,1-.85-.41-2.73.82-3.27l1.69-.29.33,1.46a8.82,8.82,0,0,0,2.69,4.08l-1.26,1.54c-2.12,3-3.63,6.84-5.11,8.14-.67.59-5.66.56-3.32,3.28.5.58,5.73-1.92,6.66-2.2a10.74,10.74,0,0,1,2.59-.47h.31l0,.75c-.28,2.29-1.78,4.62-7.59,6.35-3.12.91-4.06,2.37-3.77,4.16l.11.53,0,0c-1.15,1.42-.72,3.7-2.84,4.32-1.38.4-1.67-1.23-3.31-.37-4.6,2.42-3.26,5.35-5.83,9.1-1.32,1.92-6,2-7.91,3.28s-1.24,5.21-1.24,7.66c0,11,8.49-4.66,9.15-5.83,9.12,16,9.06-8.5,11.23-6.92,1.15.85,6.65,3.64,8.3,2.18l.42-.77.31.55c1.21,2.56,1.69,5.12.48,7.56a37.34,37.34,0,0,1-7.85,10.79l-.14.12-.44.2a14.34,14.34,0,0,1-3.17.85c-5.16.71-9,.61-11.63,4.38-2.33,3.39-11.31-2-13.31,3.28-.26.7-2.85,6.12.83,4.72,5.47-2.05,10.37-3.49,15.34-4.88l2.79-.77-3.56,2.66a81.83,81.83,0,0,0-8.16,6.77l-.41.44-.51.06c-4.43,1.86-1.18,11.79-3,12.85h-2.5c-3.39,1.18-6.16,12.67-2.9,14.56,1.64,1,4.56.64,4.56,3.28,0,1.88-.62,6.92,2.09,6.92,10.66,0,1.65-5.41,3.74-10.92.58-1.51,5.37,3.16,5.82,0,.52-3.62-1-5.71-2.5-8.38,2.22,1.3,3.46,3.24,6.65,2.92a2.44,2.44,0,0,0,2.1-1.54l.31-1.92.31.07c9.06,1.94-.68-12.81,8.75-12.81,5.63,0,7.3,3.68,7.25,8.68l-.06,1.52-2.66,2.09a26,26,0,0,0-4.36,5c-1,1.74-4.38.86-5.81,3.63-.21.42-.66.69-.84,1.11-4.91,11.16,5.65.48,7.9-.37l4-1.44-.21,1c-.33,1.43-.67,2.81-1,4.14-1.57,6.93-5.88,2.89-9.39,7a4.57,4.57,0,0,0-.86,2.06v.13h-.09c-3.41.72-5.08,2.44-6.2,6.41-.31,1.09-4.71-.4-6.24,0-3.27.87-2.64,6.31-3.75,6.55-5.35,1.17-11.26,3.37-13.71,7.66-.67,1.15,7.23,2.24,8.31,2.18,4.3-.21,4.63-2.66,6.24-5.47,2.15,4.74,8.29,2.81,8.72-2.17.15-1.65,1.66-2.71,3.74-3.56l1.54-.5-.09.23c-3.35,8.6-13.19,11.18-16.76,18.52l-.3.75-1.05.38a5.41,5.41,0,0,0-2.65,6.4c.63,2.73-4.33,5.17-6,7.41-2.67,3.51-2.41,5.94-2.41,10.06,0,1-3.58-.8-4.85.53-6.88,7.24-7.7,11.75-.6,15.89,3.86,2.26,5.69-1.72,6.65-4.23,1.19-3.14,4.89,1,7.86-2.13,3.23-3.4,2.63-10.75.61-14.3,5.15,1.8,8.67,3.18,15.11,3.18,4.2,0,4.22-3.27,4.84-6.36a4.86,4.86,0,0,0,0-.67v-.06l.16-.07a.86.86,0,0,1,1,.45c5.42,8.92-6,8.75-6.81,9.85-2.2,3-.21,7.29-1.71,11.26-3.13,8.28-6,11.31-9.39,16.9,1.23,0,15.88-1.36,16.22,0,2,8.44-10.28,13.4-12.8,15.49-.78.63.72,3.49,0,4.21C55.59,470.8,51.94,481.21,47.2,492.89l-2.07,4.63L0,497.63V893.7H1920V632.36h-.31ZM152.69,427.42l-.74-1-.47-.61.21-1.31.38,0a1.18,1.18,0,0,1,.74.38c.44.58-.12,1.52-.19,2.29Zm-.18-10.28.52-3.4a3.33,3.33,0,0,1,1-1.73l1.1-.35-.11.67a10.16,10.16,0,0,1-.3,2.23,4.68,4.68,0,0,1-.9,1.49Zm.79,10.92c.61,0,1.44-.61,1.85-.18.74.79.91,1.37.74,1.81l-1,.73-.46-.69-1.3-1.73Zm103,24.4c.2-.52,4.6-.52,9.15-.39l1.71.07-3.88,3-3.12,3.7-2.94-2.13A4,4,0,0,1,256.29,452.46Zm359.1,28.38.52-.25,0,.08c-.48,1.32.76,1.76.89,2.62l0,.31-.52-.16a1.32,1.32,0,0,1-1.33-1A1.48,1.48,0,0,1,615.39,480.84Zm3.15-6.53,2-.52v.68a4.91,4.91,0,0,1-.31,1c-.49,1.12-1,1.33-1.61,1.38l-.8,0-.17,0a7.57,7.57,0,0,0-2.46.14C614.48,476,616.41,475,618.54,474.31ZM639.46,483c.74.76-.82.75-.92.85-.31.25,0,.63-.23,1a7.05,7.05,0,0,1-1.3,1.47h2.22c.28.73-1.4,1.16-1.74,1.34-.11.06.1.3,0,.36a6.42,6.42,0,0,0-2,1.88l-.2.29,0-.05a3.06,3.06,0,0,1-.56-.91c-.3-.84,0-2-.57-2.42-1.2-.9-2.66,0-3.19-1.53-.71-2,2.73-3.2,7.63-2.72l.34,0V483Zm-2.8,12.28-.93.72v0a.62.62,0,0,1,.1-.41,1.07,1.07,0,0,1,.77-.28Zm760.83-39.63-2.59,1.12-2.13-2.3c-.76-.8-1.11-1.43-.3-1.81l4.56-1.33h.28c1.71,0,3.07,0,3.15.23C1401.11,453.22,1399.48,454.57,1397.49,455.61Zm.76,31.4-.21.1-.4-.17Zm207.52-96.27,1.48-1.67a15.24,15.24,0,0,1,3.53-2.85l7.26-3.3-.86.62c-2.35,1.85-4.48,3.69-6.42,5.53l-.18.18-3.2.7L1606,391.1Zm164.45-132.31a5.73,5.73,0,0,0,1-3.63l-.18-.46,1.42,2.27a9.5,9.5,0,0,1,.32,3.46l-.31,1.82-2.76-2.66-.08-.13Zm-32.55,18.11c6.58.26,11.53-.27,12.28-3.6,1.35-5.93,6.37,4.34,9.07,7.21l1,1.24-3.56.5a11.63,11.63,0,0,0-4.39,1.86c-1.37,1-1.81,2.87-2.08,4.95l-.66,3.59-5.8-6.47c-3.11-3.08-6-5.8-7.61-8.12l-.81-1.3Zm-124.43,38.24c9.29,4.08-.92,8.78,10.72,6.5,6.87-1.34,8.33-9,14.82-12.27a35.89,35.89,0,0,1,4.23-1.81l1.7-.43,0,.25a3.11,3.11,0,0,0,.57,2.28c1.69,2.11,6-2,7.9,0,10,10.49-11.15,10.28-12.63,11.58-4.07,3.54-.38,8.59-3.16,13.27l-1.7,2.65-2.74.44c-5.63-.07-12.47-2-16.36.64-3.51,2.38-5.76,8.37-8.23,11.54a20.59,20.59,0,0,1-3.59,3.58l-1,.61-4.06-2.49c-1.51-1-2.66-1.95-2.94-2.88-1.15-3.67,4-4.71,2-9.44-1.76-4.1.16-7.79-3.45-10.36-4.39-3.09-7.69,1.3-11.2-5.65-2.48-4.89-3.91-7.18-3.1-8.65l2.59-1.56v.6l.19.88,3.12-.73C1596.71,311.91,1604.57,311,1613.24,314.78Zm-42.83-16.07.58-.34,1.88,1.81c2.67,1.69,5.23-.94,7.39-1.23,1.75-.21,1.45,3.14,3.26,4.14l2,0-1.15,3.11-.33,1.76-1.22-.26c-6.25-1.31-13.64-3.23-15.22-6.42C1567.29,300.68,1568.56,299.81,1570.41,298.71Zm-36.63,95.62,0-.8,3-3a19.75,19.75,0,0,1,2.34-1l.94-.24,0,.14a1.83,1.83,0,0,0,.43,1.3c1,1.2,3.35-1.1,4.48,0,6.15,6-5.91,5.86-6.7,6.6-2.17,2,.15,4.87-1.26,7.53l-.27.5-1.49-.1c-1.08-.1-2.08-.48-3-2.58C1530.36,398.17,1533.17,396.87,1533.78,394.33Zm-25.87,26.33,2.5.5-.72.64-.09.75-.75.18a5.23,5.23,0,0,0-2.6.89c-1.08.81-.54,3-1.08,4.55a5.18,5.18,0,0,1-1.05,1.72l-.45.38-2.52-6.1C1501.11,422.15,1502.67,420.66,1507.91,420.66Zm-69.76,37.26,6.93-.15,4.17,2,3.06.8-3.63,2.05-1.67-.74a62.23,62.23,0,0,0-15.64-3A35.05,35.05,0,0,1,1438.15,457.92Zm-39.31-25.15c.69.86-.69,2.53,0,3.4h2.71c3.43,3.6-3.83,3.53-4.34,4-1.39,1.21-.13,2.93-1.08,4.55l-.74,1.15-.06.08-.43-.32c-.3-1.24,1.49-1.59.92-3.19-.49-1.38.23-2.63-.92-3.49-1.4-1-2.61.45-3.65-1.91a3.14,3.14,0,0,1,.25-3.33l.08-.71h.2C1394.32,432.78,1397.92,431.6,1398.84,432.77Zm-9-5.43,1.78.38-.94.68a4.64,4.64,0,0,0-.66.67l-.36.54-.62-.3c-1.3-.5-2.52-1-2.35-1.38C1386.88,426.94,1388.41,427.05,1389.84,427.34ZM640.28,475.88c.66,0-.36.49-.3.84s1.07.84.88,1.37-.81.24-1.28.59c-.24.17-.12.65-.24,1L638,480.78l-.36-.11c-2.56-.66-5.86-.92-6.75-.57-1-1.39,2.68-2.66,5.19-3.21l.54-.12,0,.32c0,.1.15.13.31,0l.79-.51H638c.07,0,.12,0,.13,0a.63.63,0,0,0-.16-.18h0l.32-.2C639.21,475.68,639.25,475.88,640.28,475.88Zm-1.61-1.78.16,0-1.93,1.5-.11.34h0c-2.22-.63-6.31-1.11-6.66-1.4C629.47,473.07,636.9,473.73,638.67,474.1Zm-18.9-7.43c1.41-.28,4.53-1.25,4.83.17.15.35-1,.83-2.25,1.31l-.18.07-1.55-1.06-1.1-.46Zm-.39,3.62h0l0,.07a2.69,2.69,0,0,0,0,.76l.58,1.2-1-.23a25.83,25.83,0,0,1-4.14-.86C614.54,470.33,616.92,470.19,619.38,470.29ZM281.9,394.52c7.14,0,4.23,5.94,2.7,10.23-1,2.81-3.73,1.17-6,2.84-1.08.81-.54,3-1.08,4.55-1.84,5.12-11.94,5.43-11.94,10.79,0,3.4,8.29-.72,9.77,1.14.69.88-.7,2.55,0,3.41h2.71c3.43,3.61-3.84,3.54-4.33,4-1.4,1.21-.14,2.94-1.1,4.54-2,3.36-3.81,4.57-6,6.83.78,0,10.09-.55,10.31,0,.64,1.7-1,3.06-3,4.08l-3,1.29-1.33-1.32a36.77,36.77,0,0,1-5.41-7.06c-1.76-3,.57-6.19-2-8.43-.95-.83-14.4-.7-8-7.38,1.18-1.24,4,1.36,5,0,1.29-1.62-1.27-4.69,0-6.31,2.73-3.43-7.14-1.54-7.14-7.85,0-8.08,4.31-6.19,4.09-10.29l-.08-.65,2.92,3.27c1.63,1.13,2.73,2.13,4.39,3.2,2,1.3,4.58,3.15,6.92,3.83.48.14.7-6.78,0-8l-1.27-1.07,1.93-.05C275.13,398.76,277.1,394.52,281.9,394.52ZM239,369.61c2.64-.53,5.92-5.1,7.66-3.56s3.12,8,4,10.22c1.86,4.62,2.71-2.74,8-1a25.1,25.1,0,0,1,6.83,3.91l6.55,4.32-1.88,3.29a25.28,25.28,0,0,1-4.08,6.55l-.78,1.49-2.18-1.47c-2.31-1.3-4.44-2.28-4.1-3.37,1.3-3.95-5.09-10.95-9.11-12.48-4.57-1.71-7.9,1.56-10.22-2.88l-.64-1.07-.73-2.34-.38-1.68Zm-58.91,46.92c2.33-1.11,6.27-1,8.49-2.47,1.41-.93,1.85-1.78,1.72-2.56L190,411l3.37-3.59a25.38,25.38,0,0,0,5.19-4.31c.44-.54,1-2.67,2.56-2.24l1.37.32.11.34c.26,3-7.19,7.88-11.57,14l-5.31,9.95-.84-1.6C182.3,420.39,177.6,417.73,180.13,416.53ZM149.06,404.1c3.51-1.17,5.24-4.86,9.4-4.86,6.2,0,3.69,5.16,2.36,8.89l-.08.1-.13-.35c-2.86-4-10.4-1-11.81-2.61l-1-1Zm2.22,37.3L153,441l.81.06c.25,0,.39.08.41.13.56,1.49-.86,2.66-2.58,3.56l-.3.13-.71-1a7.54,7.54,0,0,0-4.74-2.19A41.64,41.64,0,0,0,151.28,441.4Zm-19.92-36.1a5.29,5.29,0,0,0,1.72-.56c1.24-.59,4.91-3.91,5.45-1.06a18,18,0,0,1,.23,4.44l-.37,3.07-.64-.44c-1.76-1.24-3.62-2.5-5.34-3.86l-1.9-1.64Zm7.29,50.84.13,0-2.3,3.54-.23.32-3.72-.89a27.06,27.06,0,0,0-4.56-.51A37.1,37.1,0,0,1,138.65,456.14Z"/><path class="cls-3" d="M1584.42,316.94l-.64-2.88-.46.09C1580.91,315.07,1581.76,316.17,1584.42,316.94Z"/></svg>